<svg xmlns="http://www.w3.org/2000/svg" width="1980" height="720" viewBox="0 0 1980 720"><rect width="100%" height="100%" fill="#DDDDDD"/><path fill="#999999" d="M480.58 422.405h30.16v21.46h-92.8v-21.46h33.99v-97.79q0-5.8.35-11.95l-24.13 20.19q-2.09 1.62-4.12 2.03-2.03.4-3.82.06-1.8-.35-3.19-1.22-1.4-.87-2.09-1.92l-9.05-12.41 51.16-43.5h23.54zm82.94-95.93q0 14.03 7.25 21.4t20.59 7.37q6.96 0 12.42-2.21 5.45-2.2 9.16-6.03t5.63-9.05q1.91-5.22 1.91-11.25 0-6.84-2.09-12.24-2.09-5.39-5.91-9.1-3.83-3.72-9.11-5.69t-11.54-1.97q-6.5 0-11.72 2.15-5.22 2.14-8.93 5.97t-5.68 9.11q-1.98 5.27-1.98 11.54m-14.03 117.39 52.08-65.08q1.97-2.43 3.71-4.75t3.37-4.64q-5.8 3.71-12.76 5.62-6.96 1.92-14.62 1.92-8.7 0-17.05-3.02-8.35-3.01-14.85-9.1-6.49-6.09-10.5-15.08-4-8.99-4-21.06 0-11.25 4.18-21.11 4.17-9.86 11.71-17.28 7.54-7.43 18.1-11.72t23.32-4.29q12.87 0 23.14 4.06 10.26 4.06 17.51 11.37 7.25 7.3 11.14 17.51t3.89 22.39q0 7.77-1.34 14.73-1.33 6.96-3.77 13.4-2.43 6.44-5.91 12.59-3.48 6.14-7.78 12.18l-38.39 54.75q-1.97 2.78-5.92 4.7-3.94 1.91-8.93 1.91zm177.59-20.53q7.08 0 12.42-2.03 5.33-2.03 8.99-5.63 3.65-3.59 5.51-8.58 1.85-4.99 1.85-10.79 0-13.8-7.65-20.88-7.66-7.08-21.12-7.08-13.45 0-21.11 7.08-7.65 7.08-7.65 20.88 0 5.8 1.85 10.79 1.86 4.99 5.51 8.58 3.66 3.6 8.99 5.63 5.34 2.03 12.41 2.03m0-127.49q-6.38 0-11.02 1.98-4.64 1.97-7.71 5.27-3.07 3.31-4.52 7.6t-1.45 9.05q0 4.99 1.21 9.69 1.22 4.69 4.12 8.35 2.9 3.65 7.66 5.86 4.75 2.2 11.71 2.2t11.72-2.2q4.76-2.21 7.66-5.86 2.9-3.66 4.11-8.35 1.22-4.7 1.22-9.69 0-4.76-1.51-9.05-1.5-4.29-4.52-7.6-3.02-3.3-7.66-5.27-4.64-1.98-11.02-1.98m28.31 60.56q15.31 4.98 22.62 15.25t7.31 25.11q0 11.14-4.24 20.19-4.23 9.05-11.89 15.43-7.65 6.38-18.38 9.86t-23.73 3.48q-12.99 0-23.72-3.48t-18.38-9.86q-7.66-6.38-11.89-15.43-4.24-9.05-4.24-20.19 0-14.84 7.31-25.11t22.62-15.25q-12.18-5.11-18.27-14.5-6.09-9.4-6.09-22.62 0-9.52 3.89-17.75 3.88-8.24 10.84-14.33t16.65-9.51q9.68-3.42 21.28-3.42t21.29 3.42 16.65 9.51 10.84 14.33q3.89 8.23 3.89 17.75 0 13.22-6.09 22.62-6.09 9.39-18.27 14.5m167.73 3.59q0 21.93-4.69 38.11-4.7 16.18-13 26.74-8.29 10.55-19.6 15.71-11.31 5.17-24.42 5.17t-24.3-5.17q-11.19-5.16-19.43-15.71-8.24-10.56-12.88-26.74t-4.64-38.11q0-22.04 4.64-38.16 4.64-16.13 12.88-26.68 8.24-10.56 19.43-15.72t24.3-5.16 24.42 5.16 19.6 15.72q8.3 10.55 13 26.68 4.69 16.12 4.69 38.16m-29.58 0q0-18.21-2.66-30.16-2.67-11.95-7.14-19.02-4.46-7.08-10.26-9.92t-12.07-2.84q-6.15 0-11.89 2.84t-10.15 9.92q-4.41 7.07-7.02 19.02t-2.61 30.16 2.61 30.16 7.02 19.03q4.41 7.07 10.15 9.91 5.74 2.85 11.89 2.85 6.27 0 12.07-2.85 5.8-2.84 10.26-9.91 4.47-7.08 7.14-19.03 2.66-11.95 2.66-30.16m213.79 45.47-15.19 14.97-39.33-39.33-39.67 39.56-15.2-14.96 39.68-39.79-37.82-37.82 15.08-15.08 37.82 37.82 37.58-37.59 15.31 15.08-37.7 37.7zm79.69-129.34h115.89v12.42q0 5.56-1.16 8.99-1.16 3.42-2.32 5.74l-63.57 130.85q-1.97 4.06-5.57 6.9-3.59 2.84-9.63 2.84h-20.76l64.84-128.18q2.21-3.94 4.35-7.25 2.15-3.31 4.82-6.32h-80.27q-2.67 0-4.64-1.97-1.98-1.98-1.98-4.64zm194.54 141.06h43.03q4.64 0 7.37 2.61 2.72 2.61 2.72 6.9v17.17h-115.07v-9.51q0-2.9 1.22-6.09t3.89-5.74l50.92-51.04q6.38-6.5 11.43-12.42 5.04-5.91 8.41-11.71 3.36-5.8 5.16-11.78 1.8-5.97 1.8-12.58 0-6.03-1.74-10.62-1.74-4.58-4.93-7.71t-7.66-4.7q-4.47-1.56-10.03-1.56-5.11 0-9.46 1.45t-7.71 4.06q-3.37 2.61-5.69 6.09t-3.48 7.65q-1.97 5.34-5.1 7.08t-9.05.81l-15.08-2.67q1.74-12.06 6.73-21.17 4.99-9.1 12.47-15.19t17.17-9.17q9.68-3.07 20.82-3.07 11.6 0 21.23 3.42t16.47 9.69q6.84 6.26 10.67 15.08 3.83 8.81 3.83 19.6 0 9.28-2.73 17.17-2.72 7.89-7.3 15.08-4.59 7.19-10.73 13.92-6.15 6.73-12.88 13.69l-37.82 38.62q5.46-1.62 10.85-2.49t10.27-.87m192.56-57.19q0 21.93-4.7 38.11t-12.99 26.74q-8.3 10.55-19.61 15.71-11.31 5.17-24.42 5.17-13.1 0-24.3-5.17-11.19-5.16-19.43-15.71-8.23-10.56-12.87-26.74t-4.64-38.11q0-22.04 4.64-38.16 4.64-16.13 12.87-26.68 8.24-10.56 19.43-15.72 11.2-5.16 24.3-5.16 13.11 0 24.42 5.16t19.61 15.72q8.29 10.55 12.99 26.68 4.7 16.12 4.7 38.16m-29.58 0q0-18.21-2.67-30.16t-7.14-19.02q-4.46-7.08-10.26-9.92t-12.07-2.84q-6.14 0-11.89 2.84-5.74 2.84-10.15 9.92-4.4 7.07-7.01 19.02t-2.61 30.16 2.61 30.16 7.01 19.03q4.41 7.07 10.15 9.91 5.75 2.85 11.89 2.85 6.27 0 12.07-2.85 5.8-2.84 10.26-9.91 4.47-7.08 7.14-19.03t2.67-30.16"/></svg>